<svg xmlns="http://www.w3.org/2000/svg" viewBox="0 0 256 256">
  <defs>
    <linearGradient id="bg" x1="0" y1="0" x2="1" y2="1">
      <stop offset="0%" stop-color="#f5efe4"/>
      <stop offset="100%" stop-color="#d9c6a2"/>
    </linearGradient>
  </defs>
  <rect width="256" height="256" rx="32" fill="url(#bg)"/>
  <rect x="34" y="32" width="88" height="192" rx="8" fill="#fffdf7" stroke="#2c2418" stroke-width="6"/>
  <rect x="134" y="32" width="88" height="192" rx="8" fill="#fffdf7" stroke="#2c2418" stroke-width="6"/>
  <path d="M128 32v192" stroke="#2c2418" stroke-width="6"/>
  <path d="M61 76c0-18 14-32 32-32h16v20H95c-7 0-14 5-14 12 0 8 7 13 18 16 17 4 31 15 31 34 0 20-16 34-37 34H76v-20h15c10 0 19-6 19-14s-7-12-20-16c-17-5-29-16-29-34z" fill="#2c2418"/>
  <path d="M155 72h46v18h-27v18h24v18h-24v22h29v18h-48z" fill="#2c2418"/>
</svg>
